<mxfile host="app.diagrams.net" agent="Mozilla/5.0 (Macintosh; Intel Mac OS X 10_15_7) AppleWebKit/537.36 (KHTML, like Gecko) Chrome/132.0.0.0 Safari/537.36" version="26.0.10">
  <diagram name="Page-1" id="oTOJvRXaxsOc8upTRUd0">
    <mxGraphModel grid="1" page="1" gridSize="10" guides="1" tooltips="1" connect="1" arrows="1" fold="1" pageScale="1" pageWidth="850" pageHeight="1100" math="0" shadow="0">
      <root>
        <mxCell id="0" />
        <mxCell id="1" parent="0" />
        <mxCell id="X_YEfK2kRvDwuPAW67rm-4" value="Amazon S3&lt;div&gt;&lt;br&gt;&lt;/div&gt;" style="sketch=0;points=[[0,0,0],[0.25,0,0],[0.5,0,0],[0.75,0,0],[1,0,0],[0,1,0],[0.25,1,0],[0.5,1,0],[0.75,1,0],[1,1,0],[0,0.25,0],[0,0.5,0],[0,0.75,0],[1,0.25,0],[1,0.5,0],[1,0.75,0]];outlineConnect=0;fontColor=#232F3E;fillColor=#7AA116;strokeColor=#ffffff;dashed=0;verticalLabelPosition=bottom;verticalAlign=top;align=center;html=1;fontSize=12;fontStyle=0;aspect=fixed;shape=mxgraph.aws4.resourceIcon;resIcon=mxgraph.aws4.s3;" vertex="1" parent="1">
          <mxGeometry x="300" y="228.5" width="78" height="78" as="geometry" />
        </mxCell>
        <mxCell id="X_YEfK2kRvDwuPAW67rm-8" value="Reddit API - Scary Stories&lt;div&gt;&lt;br&gt;&lt;/div&gt;" style="dashed=0;outlineConnect=0;html=1;align=center;labelPosition=center;verticalLabelPosition=bottom;verticalAlign=top;shape=mxgraph.weblogos.reddit;fillColor=#F3F8FC;gradientColor=#B4D2F0" vertex="1" parent="1">
          <mxGeometry x="80" y="40" width="88" height="73.60000000000001" as="geometry" />
        </mxCell>
        <mxCell id="X_YEfK2kRvDwuPAW67rm-10" style="edgeStyle=orthogonalEdgeStyle;rounded=0;orthogonalLoop=1;jettySize=auto;html=1;" edge="1" parent="1" source="X_YEfK2kRvDwuPAW67rm-8" target="E040_gbmrBW3kfhlaQrN-2">
          <mxGeometry relative="1" as="geometry">
            <Array as="points">
              <mxPoint x="30" y="77" />
              <mxPoint x="30" y="267" />
            </Array>
            <mxPoint x="70" y="267" as="targetPoint" />
          </mxGeometry>
        </mxCell>
        <mxCell id="X_YEfK2kRvDwuPAW67rm-13" style="edgeStyle=orthogonalEdgeStyle;rounded=0;orthogonalLoop=1;jettySize=auto;html=1;entryX=0;entryY=0.5;entryDx=0;entryDy=0;entryPerimeter=0;exitX=1;exitY=0.5;exitDx=0;exitDy=0;" edge="1" parent="1" source="E040_gbmrBW3kfhlaQrN-2" target="X_YEfK2kRvDwuPAW67rm-4">
          <mxGeometry relative="1" as="geometry">
            <mxPoint x="288" y="266.5" as="sourcePoint" />
          </mxGeometry>
        </mxCell>
        <mxCell id="E040_gbmrBW3kfhlaQrN-2" value="Apache Airflow&#xa;" style="shape=image;verticalLabelPosition=bottom;labelBackgroundColor=default;verticalAlign=top;aspect=fixed;imageAspect=0;image=data:image/png,iVBORw0KGgoAAAANSUhEUgAAAOEAAADhCAMAAAAJbSJIAAABuVBMVEX///8Ax9QArUbkOSEBfO4R4e7/dVcE1lkMtv8AxNJKSEgAeu4MuP8Aq0UAeO4A3+0Ace0AdO0Aqz//dFYAuv8AqTjiHwAS5PbjKQAAy9oAsP8AdvQAqDT/clH/b0zkNRvjLQ3sLgAE2VL+9fTqSC8DgvAE2k0K1OH40s7s+vv86+n/aEXvVDpl1+AKq/wFjvPS5PsBtkoDw1D1/PhCumnlRTHnWEjoYFHxp6D63tvU8/bl+Pr98O7tiX9B0NvreGyL4Oe36/B9ibTtfGM/vMSkb4iLpqQHlvWexPcBiN4DvI/p8v0BhONAkfABkNMDylMDslsBlM5vqPMN0sIFuHALyall34xdwn3k9erL6tWU1ahUnPJ2yo/e6/zpaVrvmJD0u7XztK7sgHad5evukon+ysL9rZ/+mITIUVJanNRoksOMgai9XGfWRDq/joBVyv+vmZDXinlitLiCzv7AkoWhnpii2v6raX7FVFdAVV5eTkpDWGJkR0NOQjJKOzobcs+FtfVCXkdOPEgemEYDsaIDo7gDzG0DuJUP2NUCmsbA2PkDwIgDqq1X4Hp24ZaL5Ka47shzyY2Q0qOAZSt/AAAOtUlEQVR4nN3c+X8TxxUA8JVsyxZry7YkCxldhiAw4NgkvrkDSQ2YgLjqA2ODAy2BQEuatKFHSkhCKElbwl/c2UPSanfu90Yyfb8AiS3z/bw3782sRliWZZ048Z4b1v9pjOdzuVw+nx8bq3Ttn52dm5vfPH16+97W1sLdO/fHFw+/w/Bjp04dI7/MVboaUanHmBOEnXMiv39uc/vewt3744dPvEveY8lYLEZ+nQ8IGeGRHW++Mju/vXV3fPEdkB53gMlDlrWYExNbtJ61Mnd6687iiU4z2OECXaG1mFciBqh5ktO5kwv3D3daQ4njsVhDqEv0oSSlucrm1p2dxTwU82Pa/ePiGIDoO0k+NxfGd8rybAB9oXUYTPSYufz81nhnbW5Mx8JC63AFg9jlJXN+YbGjviAw1viPaERXmdt/spOpjNGE1okuPKKbyvz2/R0ADAitE/sxiSTG8pWOZPJUkiG03ptFJhJkbvZuZ4EtQkIcwyZ2VfL5k22dlCFgq9AI0UnkZvuKNQw8Ff6CORPErkpurk3GMDAqNEQkxvl2zMgIkCI0RSTG08bXYxRIE1rzhohkeiyYBb4fBcbep32hMWJXftZkqdKAdKG1aYxYyW21F5ikC63NvCliV37O0GMBKjCWPMP48tPmiJUxI4ODDmQLjRJzBjZyZ+hAjtDaNkfsyt1rFzCW/Iz9TSaJ+e02AblC62TOIHGzPcBY8iPeN94zSBxDJHKAseQx7rcaJc5jAT/jAEVCa8skMdEGoFBomIjxcJUPjCWPi15gwSCxC4H4ER/oP9TvGHECTBQBY0mJFzFJLAGJQqCU0LprjjiRARHFwPCDKEbcMUfMZEr6Rw0ZIO2I31biRCKT0SUekwDKCg0SE4lMSe/xjRSQccSnxH1DxEpJlygHZB3xKTFuiDiRIMSy+tMbOSDveNg2YsIhHlElSgL5h6coEf19my6vTNWzKAsUHJ4iRMh9BmY4ZaqaxeOyQEWh6sUbudifUCYel/XJbLxDRBNZTPhxRPYRnHwGpTbexomVjCJRIYMkVIWo9xl8YTmhRDwkVgVDFWiCOJFoEsVXGxSBsps2o8SAUExUBGoJkW+lNJqpFFEVqLKlMUdsESaO3OH85GmxCUWIfCulVZg4wnlTQxWoOvADRNS7RQlZ4il1oehZIpuImcVEmPg7+g8dVZj0daHiliYYiBdvwkIGkXILQSzUB2Je2YgIqUQdoM7AN0GMCilEPaDWOGwG1pUNijBC1APKP6VhBM6Vjf00YYioCVQ64Zsj0oWJ8u+bP4dxC0Es1B2HASLCO+EMYYCoCwSMQ1TiBEPYIGoD1c+/tIDfSmEKfaI+EDgsgsTKXhJ5vUVZOcIUukQIEDgs6rGd3/vg7OefP3z0RX6vzl6uxBYSIgSoe7KIEs9ms/392Wy27+xjdWPzOQ2V+GQUIIS3Ui/+0N/nBVE+nN2rSuQBCfFLgBChlbrAvkBks48U08gaFn6U/qifRJRWGgI6xquPldLIbqVuZJ4CytQI0KnVT1SInFYKFUJ3pW78aU9ESNL4UP7BcYXXSp0q1ReitFIqkBD7H0sPR24rJcKv9YUIrZQBJJXa90ByryNoNJBeCnmEIQI6i/ELucUoajQJbSBCo+EApYmBdy3oRQoYFuBGwwW6RIlC5e9oSJF+rA0EH38FQIf4jUS7EaTwK8C8B+5o/iwCEmL/AyFRsAzLkH23caDTUR+L5iJ/GQJGBfToJAV0iKLRzwVmzun7gPNeEkhG/+f8hsqfhoA2A1yG0kBCPMslcpdh+TeAGgUtQwUgIf6FQ+TOihLk8Atahq9VgIT4gL0UeUWaOQcCAqbhUTWg0210ijSTAAyKGGRTqgp0zlKsOuWcnDKlj0Ep1N+UqgMJ8RNWFtnA8pcwoPasODqpDiRExuBnFikYqD0rdDJIop8+FZmdFA7UnRW39YAkiY9oRFYnha9B3ZOTNpBRp4wizSTgQL0HGAAgvU7pRVo6lwQD9TrpMgBI7af0Ii09hfP0OukyxOfM/fBVMfrzizLgyBsQanTSJrA/GlJJjMx9ahMFbbYbMaoLJJhs3+Tk0tTUVNUN8pulpck9fVkJZ/ab1iRS+kwpAZ4SbmjsSZc93p6lqaqdsm27uxG2G91TjpOvDDUbyjAsP4mhAGPJaTEpAuzPTi5VW3EtYdup7urSJC+X2U+CT20ifQarQpU+CVQP0ieWulMsXICZSnlKehKDh4xInyk/xRgSnlD5WOH4mMmLKknJ0gu2ZWcTTiDkmVMolFOYneyW5TWU1aU9UWR/f/POZmufKZ+Eb2MaoTwq+qopNZ+HtF1kKImNhzaVlhZawlqBbqg+vpiUWH+sTLrl2kKsJ3EiWKBP0FagE6opvDWs6fMzOTUZNNbHfvNwnymfw5mBjVBMIQzY7S3JQCL9M0ZjVJQyqAUaU07hLZ0lGEU2E+klsZ7CUulrpBnfBKo10mvQDNaDJNJvrdnHs49nvVFRKn+FugA9odIFEzRgt7Mi3dbaf/XZrl3P/nrO8T1BnBANoNKO9PwQHrDb6zrZ/m93ubFZfmrAF1M7+b7GBXa7XedvHnDX3834lNrMMkaTCUf1H77wW9gDbRbwjEoKp3QHPS/+2RD+YkKoNAqfI3aZQJjNoUofPYq+CEnYhUvf+cJnB/GJarO+il+jduHCxQMfvvBSGOsZ1PicFh+oNCjwa5Tk7+KBfb29H3734sWLZ7EeEoOoeVTbzCxjA4nvJ8dH4oPvvx+o7e7x4mAMC6m4W0PZjgZi2P5hn+frvTIQj8eL1+tErGJNqp0okNtMqvBjr+8jKXSE8UYS3WKFJ1IRaH2K2WbswuWXB+o+L4UtSfQS2V4g6nZtuHqx6SMpjHtRaxE6KxJSrQfVgJi7GVKg+/YFgL0DvrB4M0x0qlUvgaM9ikDEFBYuvAwmkMyKujA+EAZqL8mDPapPuNFWYarwS6uvtzfeiJFoEn2k2po82KMMvI2VwsKll2HglYEmMU0FemtSMpVJx6cMtK7hzEK78GPYVx8VvvAiPYkN5SifSXiDzhcqfywGaTuTsn+OAnsDQNJsXvGEXsUyS3bU42kArfMowsLlK/uiwA+DwHj6BjeJDSZxHhytS0dHyZ8GBxv/V+ODTSiHClqFtvQZf+zLCLmhcXcNY8NmF36iAq8MhIjUiWEYiNFnUt2RHhrtM97E4DcbI0ALXqOpS7QlGOkzks2GE4NaN9deg/vM8GU6L7ifaTabyPbUNBBepIWrjARSipSzszEGtKApLPyLvgTpRQqoU10gtEh5QEqROqFXp7pAaJEOX2UDw8MQ1E+1gRYsg6nLHGBkGDbq9LoycVD7s6GwcZ+6wPYxizTOPWRgA63nkCK1h6/whLRO6gvl9qcYQNjZt/Azc044wQSqLkUI0IIUafQ8L1mkcepDGzYQ8sFQyKxIXeACOUXqEqWnIggIWoapl1wgr0hVug0MCFmGhR/4KWTOirqw1g6gpZ9C+xIfGDrd6xIHz8CAR/WXYeEit4+SDY0gh1IzAwq0zmvnUJhC0TJ0YuRnAREMtG5pL8PCT4IUipahR+RnEQ4EHO9tQQbFy9AnmgXe1l6GKd6Rwg3+NGwEp90gAAHzfvgHQZGyTk40IqNSMf61IP15L9iRSi5Dj5imn6VQ/jkkQKO5IVqG0kLGHhUFCDj9CnMo12j8GKm9ChtxgMv6B4uCaB1KNpp6pY7c3N1qRAFCDhbcpxdOKAHdNAZW4+7dOEDAjkY88VWFZDXWrve4idy9+/oGkhDymG3o2r95RPlWGsxj+sbNV69e3bxRLCIRARcwhq9ZFo+oJXTWY7FYHEkT7K8oQgDwlvP9v2UTVYYFPZ8YRP03tz0gj6g0LOjEFbhQ+3CYulV/if+wiGrDwhRR9+37JpCdRQQhAlFzV5r6NPgijCxiCOFEvV1pK5BFRPA5xBmYUOs5WxjIIOII42kYUQs4FX2d/1KISEIYUWffTQNSiVhCckDWF2q8r5aq0l8qSkQTEqLyNb16qJ8sbAaQQsQTAojK45ANJMTQYQplWkCJquPQri5zXi2URUxhPB3XIyqenexuHtCy1g8YE8bTA1pEtXEoAlrWmyARvvNuJcZXNYRVXGArEXx6wiAqAW0xsIWoeQJGJap8Ita2b0u9ZoCILYyn06pElS3NsBwwSEQXEqMiUeH8m5IFWtZafWjgNlMvRtSI8luaoaMKL7t2wEyr8YhrKkLpLc2wCrCRRfRW40ZRhSj7OFgpgwGiCaAaUXLTpgysEz8Q/3UNE+U2bUOvlYE+0UyZqhClntJoAS1r1VyZKhBlHulrAj2ikW6qQpTYlmoDPaIpoSxRvAwBQJdoLInx4huZv4Jw0zZ0HgC0rGlzK1GOKNyWAoEO0VQ7lSOKhGCgQzSxOa0T10U/XvAsEQFIiFfSxoRiIv9ogQIkxJcdJHKPFkPPUYCEWDNJfKstRAOSmOkYkXN4wgQS4kiHiOzD0zAq0LJWTBI5t1KYQuceCTKx2BEi63iID7SsdZNE5q0UhtAEkBwYR8z1G+bFG/oB2AyQ7MNr5hYj6z4DVTh8i/7FCLFhrlIZRNoR3yCQVOqAsTTSiZR3nlImgZbTcEytRioxKozeI8GO1RVTRtqVjchjGvNAEmszhpYj5W5RWNgWoGOsmcljNIvVzgAtN48mjBFiq5B+E8hUkPVooK+GidXOAUlMrxso1tCtlGongU6sbaSx93KtxACQdxPILHKliItsuXgTBGr841loyI04pjJIDABlrlkYjLX1mWIxjaQMEOvjUOaijPlYezszgpPL5q2U1E4COjG9tr6SJkoos0485AnlbgK1L1bX3q7EizCnf/HG+zTJTgN6QbK5MRMnVasJ9Yiu0Fa4KNP2mF59s/7rjJNQAlWUOkT3jZmdDKzH9Oram7cbM7UB50NfLlZC627gUrYtfZdrR8T0KrES7MpKjSTWjREn0l5EhUenPn2ngK1BuKtra0S8vv5249eVmZmZWq024CzBEefzfWmlu1PvUkz7QX77PyBAUU6X0ZlTAAAAAElFTkSuQmCC;" vertex="1" parent="1">
          <mxGeometry x="100" y="220" width="95" height="95" as="geometry" />
        </mxCell>
      </root>
    </mxGraphModel>
  </diagram>
</mxfile>
